<svg width="53" height="37" viewBox="0 0 53 37" fill="none" xmlns="http://www.w3.org/2000/svg">
    <path fill-rule="evenodd" clip-rule="evenodd" d="M36.5036 0.828125H1.77448C1.54421 0.828125 1.32337 0.928543 1.16055 1.10729C0.997723 1.28603 0.90625 1.52847 0.90625 1.78125V28.4687C0.90625 28.7215 0.997723 28.964 1.16055 29.1427C1.32337 29.3215 1.54421 29.4219 1.77448 29.4219H2.64271V30.375C2.64271 31.1334 2.91713 31.8606 3.4056 32.3969C3.89408 32.9331 4.55659 33.2344 5.2474 33.2344H9.42531C9.881 34.1035 10.5373 34.8254 11.3281 35.3274C12.1189 35.8293 13.0162 36.0936 13.9297 36.0936C14.8432 36.0936 15.7405 35.8293 16.5313 35.3274C17.3221 34.8254 17.9784 34.1035 18.4341 33.2344H38.9451C39.4008 34.1035 40.0571 34.8254 40.8479 35.3274C41.6387 35.8293 42.536 36.0936 43.4495 36.0936C44.363 36.0936 45.2603 35.8293 46.0511 35.3274C46.8419 34.8254 47.4982 34.1035 47.9539 33.2344H50.3953C51.0861 33.2344 51.7486 32.9331 52.2371 32.3969C52.7256 31.8606 53 31.1334 53 30.375V28.4687C53 28.216 52.9085 27.9735 52.7457 27.7948C52.5829 27.616 52.362 27.5156 52.1318 27.5156H51.2635V19.8906C51.262 19.7583 51.2354 19.6278 51.1854 19.5075V19.496L46.8443 9.01165C46.7753 8.84514 46.6641 8.70394 46.524 8.6049C46.3839 8.50586 46.2208 8.45318 46.0542 8.45312H37.3719V1.78125C37.3719 1.52847 37.2804 1.28603 37.1176 1.10729C36.9548 0.928543 36.7339 0.828125 36.5036 0.828125ZM2.64271 2.73437H35.6354V23.7031H2.64271V2.73437ZM35.6354 27.5156H18.4341C18.0309 26.7513 17.473 26.0991 16.8035 25.6094H35.6354V27.5156ZM40.8448 10.3594H45.495L49.047 18.9375H40.8448V10.3594ZM39.9766 20.8437H49.5271V27.5156H47.9539C47.4982 26.6465 46.8419 25.9246 46.0511 25.4226C45.2603 24.9207 44.363 24.6564 43.4495 24.6564C42.536 24.6564 41.6387 24.9207 40.8479 25.4226C40.0571 25.9246 39.4008 26.6465 38.9451 27.5156H37.3719V10.3594H39.1083V19.8906C39.1083 20.1434 39.1998 20.3858 39.3626 20.5646C39.5255 20.7433 39.7463 20.8437 39.9766 20.8437ZM51.0092 31.049C50.8464 31.2277 50.6256 31.3281 50.3953 31.3281H48.5807C48.6849 30.6979 48.6849 30.0521 48.5807 29.4219H51.2635V30.375C51.2635 30.6278 51.1721 30.8702 51.0092 31.049ZM45.3789 33.545C44.8078 33.9639 44.1364 34.1875 43.4495 34.1875C42.5284 34.1875 41.6451 33.7858 40.9938 33.0708C40.3425 32.3559 39.9766 31.3861 39.9766 30.375C39.9766 29.621 40.1802 28.8838 40.5619 28.2569C40.9435 27.6299 41.4859 27.1413 42.1205 26.8527C42.755 26.5641 43.4533 26.4886 44.127 26.6358C44.8007 26.7829 45.4195 27.146 45.9052 27.6792C46.3909 28.2123 46.7217 28.8917 46.8557 29.6312C46.9897 30.3708 46.9209 31.1373 46.658 31.834C46.3952 32.5306 45.95 33.1261 45.3789 33.545ZM19.0609 29.4219H38.3182C38.214 30.0521 38.214 30.6979 38.3182 31.3281H19.0609C19.1651 30.6979 19.1651 30.0521 19.0609 29.4219ZM15.8591 33.545C15.288 33.9639 14.6166 34.1875 13.9297 34.1875C13.0086 34.1875 12.1253 33.7858 11.474 33.0708C10.8227 32.3559 10.4568 31.3861 10.4568 30.375C10.4568 29.621 10.6605 28.8838 11.0421 28.2569C11.4237 27.6299 11.9661 27.1413 12.6007 26.8527C13.2353 26.5641 13.9335 26.4886 14.6072 26.6358C15.2809 26.7829 15.8997 27.146 16.3854 27.6792C16.8711 28.2123 17.2019 28.8917 17.3359 29.6312C17.4699 30.3708 17.4011 31.1373 17.1382 31.834C16.8754 32.5306 16.4303 33.1261 15.8591 33.545ZM4.63346 31.049C4.47064 30.8702 4.37917 30.6278 4.37917 30.375V29.4219H8.79845C8.69425 30.0521 8.69425 30.6979 8.79845 31.3281H5.2474C5.01713 31.3281 4.79629 31.2277 4.63346 31.049ZM9.42531 27.5156H2.64271V25.6094H11.0558C10.3864 26.0991 9.82846 26.7513 9.42531 27.5156ZM13.9297 32.2812C12.9707 32.2812 12.1932 31.4278 12.1932 30.375C12.1932 29.3222 12.9707 28.4688 13.9297 28.4688C14.8887 28.4688 15.6661 29.3222 15.6661 30.375C15.6661 31.4278 14.8887 32.2812 13.9297 32.2812ZM43.4495 32.2812C42.4904 32.2812 41.713 31.4278 41.713 30.375C41.713 29.3222 42.4904 28.4688 43.4495 28.4688C44.4085 28.4688 45.1859 29.3222 45.1859 30.375C45.1859 31.4278 44.4085 32.2812 43.4495 32.2812Z" fill="black"/>
</svg>